<svg xmlns="http://www.w3.org/2000/svg" xmlns:xlink="http://www.w3.org/1999/xlink" width="1920" height="1080" viewBox="0 0 1920 1080">
  <defs>
    <clipPath id="clip-Web_1920_1">
      <rect width="1920" height="1080"/>
    </clipPath>
  </defs>
  <g id="Web_1920_1" data-name="Web 1920 – 1" clip-path="url(#clip-Web_1920_1)">
    <rect width="1920" height="1080" fill="#363434"/>
    <line id="Line_1" data-name="Line 1" y1="115" x2="157" transform="translate(106.5 731.5)" fill="none" stroke="#d5d5d5" stroke-width="1"/>
    <g id="Ellipse_1" data-name="Ellipse 1" transform="translate(258 728)" fill="#a97524" stroke="#a97524" stroke-width="1">
      <circle cx="5" cy="5" r="5" stroke="none"/>
      <circle cx="5" cy="5" r="4.5" fill="none"/>
    </g>
    <line id="Line_2" data-name="Line 2" x1="145" y1="67" transform="translate(268.5 734.5)" fill="none" stroke="#d5d5d5" stroke-width="1"/>
    <g id="Ellipse_2" data-name="Ellipse 2" transform="translate(410 789)" fill="#f2ce76" stroke="#707070" stroke-width="1">
      <circle cx="15" cy="15" r="15" stroke="none"/>
      <circle cx="15" cy="15" r="14.5" fill="none"/>
    </g>
    <line id="Line_3" data-name="Line 3" y1="102" x2="172" transform="translate(436.5 691.5)" fill="none" stroke="#d5d5d5" stroke-width="1"/>
    <g id="Path_2" data-name="Path 2" transform="translate(593 682)" fill="#211c1c">
      <path d="M 10 19.5 C 4.761680126190186 19.5 0.5 15.23832035064697 0.5 10 C 0.5 4.761680126190186 4.761680126190186 0.5 10 0.5 C 15.23832035064697 0.5 19.5 4.761680126190186 19.5 10 C 19.5 15.23832035064697 15.23832035064697 19.5 10 19.5 Z" stroke="none"/>
      <path d="M 10 1 C 5.037380218505859 1 1 5.037380218505859 1 10 C 1 14.96261978149414 5.037380218505859 19 10 19 C 14.96261978149414 19 19 14.96261978149414 19 10 C 19 5.037380218505859 14.96261978149414 1 10 1 M 10 0 C 15.52285003662109 0 20 4.477149963378906 20 10 C 20 15.52285003662109 15.52285003662109 20 10 20 C 4.477149963378906 20 0 15.52285003662109 0 10 C 0 4.477149963378906 4.477149963378906 0 10 0 Z" stroke="none" fill="#707070"/>
    </g>
    <line id="Line_4" data-name="Line 4" y1="128" x2="128" transform="translate(610.5 557.5)" fill="none" stroke="#d5d5d5" stroke-width="1"/>
    <g id="Ellipse_4" data-name="Ellipse 4" transform="translate(738 549)" fill="#a97524" stroke="#a97524" stroke-width="1">
      <circle cx="5" cy="5" r="5" stroke="none"/>
      <circle cx="5" cy="5" r="4.5" fill="none"/>
    </g>
    <line id="Line_5" data-name="Line 5" x2="48" y2="10" transform="translate(742.5 554.5)" fill="none" stroke="#d5d5d5" stroke-width="1"/>
    <g id="Ellipse_5" data-name="Ellipse 5" transform="translate(791 563)" fill="#fff" stroke="#707070" stroke-width="1">
      <circle cx="2.5" cy="2.5" r="2.5" stroke="none"/>
      <circle cx="2.5" cy="2.5" r="2" fill="none"/>
    </g>
    <line id="Line_6" data-name="Line 6" y1="45" x2="93" transform="translate(796.5 517.5)" fill="none" stroke="#d5d5d5" stroke-width="1"/>
    <g id="Ellipse_6" data-name="Ellipse 6" transform="translate(886 505)" fill="#ecbb45" stroke="#ecbb45" stroke-width="1">
      <circle cx="9" cy="9" r="9" stroke="none"/>
      <circle cx="9" cy="9" r="8.5" fill="none"/>
    </g>
    <line id="Line_7" data-name="Line 7" x2="107" y2="61" transform="translate(904.5 517.5)" fill="none" stroke="#d5d5d5" stroke-width="1"/>
    <g id="Path_1" data-name="Path 1" transform="translate(1003 568)" fill="#bca872">
      <path d="M 20 39.5 C 17.36730003356934 39.5 14.8136100769043 38.98448944091797 12.40987968444824 37.96780014038086 C 10.08788967132568 36.98567962646484 8.002429962158203 35.57958984375 6.211420059204102 33.78858184814453 C 4.42041015625 31.99757957458496 3.014319896697998 29.9121208190918 2.03220009803772 27.59012985229492 C 1.015509963035583 25.1863899230957 0.5 22.63269996643066 0.5 20 C 0.5 17.36730003356934 1.015509963035583 14.8136100769043 2.03220009803772 12.40987968444824 C 3.014319896697998 10.08788967132568 4.42041015625 8.002429962158203 6.211420059204102 6.211420059204102 C 8.002429962158203 4.42041015625 10.08788967132568 3.014319896697998 12.40987968444824 2.03220009803772 C 14.8136100769043 1.015509963035583 17.36730003356934 0.5 20 0.5 C 22.63269996643066 0.5 25.1863899230957 1.015509963035583 27.59012985229492 2.03220009803772 C 29.9121208190918 3.014319896697998 31.99757957458496 4.42041015625 33.78858184814453 6.211420059204102 C 35.57958984375 8.002429962158203 36.98567962646484 10.08788967132568 37.96780014038086 12.40987968444824 C 38.98448944091797 14.8136100769043 39.5 17.36730003356934 39.5 20 C 39.5 22.63269996643066 38.98448944091797 25.1863899230957 37.96780014038086 27.59012985229492 C 36.98567962646484 29.9121208190918 35.57958984375 31.99757957458496 33.78858184814453 33.78858184814453 C 31.99757957458496 35.57958984375 29.9121208190918 36.98567962646484 27.59012985229492 37.96780014038086 C 25.1863899230957 38.98448944091797 22.63269996643066 39.5 20 39.5 Z" stroke="none"/>
      <path d="M 20 1 C 17.4345703125 1 14.94642066955566 1.502220153808594 12.60465049743652 2.492698669433594 C 10.34226036071777 3.449611663818359 8.310220718383789 4.819721221923828 6.564968109130859 6.564968109130859 C 4.819721221923828 8.310220718383789 3.449611663818359 10.34226036071777 2.492698669433594 12.60465049743652 C 1.502220153808594 14.94642066955566 1 17.4345703125 1 20 C 1 22.5654296875 1.502220153808594 25.05358123779297 2.492698669433594 27.39535140991211 C 3.449611663818359 29.65773963928223 4.819721221923828 31.68978118896484 6.564968109130859 33.43502807617188 C 8.310220718383789 35.18027877807617 10.34226036071777 36.55038833618164 12.60465049743652 37.50730133056641 C 14.94642066955566 38.49777984619141 17.4345703125 39 20 39 C 22.5654296875 39 25.05358123779297 38.49777984619141 27.39535140991211 37.50730133056641 C 29.65773963928223 36.55038833618164 31.68978118896484 35.18027877807617 33.43502807617188 33.43502807617188 C 35.18027877807617 31.68978118896484 36.55038833618164 29.65773963928223 37.50730133056641 27.39535140991211 C 38.49777984619141 25.05358123779297 39 22.5654296875 39 20 C 39 17.4345703125 38.49777984619141 14.94642066955566 37.50730133056641 12.60465049743652 C 36.55038833618164 10.34226036071777 35.18027877807617 8.310220718383789 33.43502807617188 6.564968109130859 C 31.68978118896484 4.819721221923828 29.65773963928223 3.449611663818359 27.39535140991211 2.492698669433594 C 25.05358123779297 1.502220153808594 22.5654296875 1 20 1 M 20 0 C 31.04570007324219 0 40 8.954299926757812 40 20 C 40 31.04570007324219 31.04570007324219 40 20 40 C 8.954299926757812 40 0 31.04570007324219 0 20 C 0 8.954299926757812 8.954299926757812 0 20 0 Z" stroke="none" fill="#bca872"/>
    </g>
    <line id="Line_8" data-name="Line 8" y1="14" x2="62" transform="translate(1043.5 574.5)" fill="none" stroke="#d5d5d5" stroke-width="1"/>
    <g id="Ellipse_8" data-name="Ellipse 8" transform="translate(1106 565)" fill="#211c1c" stroke="#707070" stroke-width="1">
      <circle cx="5" cy="5" r="5" stroke="none"/>
      <circle cx="5" cy="5" r="4.5" fill="none"/>
    </g>
    <line id="Line_9" data-name="Line 9" y1="140" x2="110" transform="translate(1113.5 428.5)" fill="none" stroke="#d5d5d5" stroke-width="1"/>
    <g id="Ellipse_9" data-name="Ellipse 9" transform="translate(1217 421)" fill="#a97524" stroke="#a97524" stroke-width="1">
      <circle cx="6.5" cy="6.5" r="6.5" stroke="none"/>
      <circle cx="6.5" cy="6.5" r="6" fill="none"/>
    </g>
    <line id="Line_10" data-name="Line 10" y1="37" x2="46" transform="translate(1228.5 387.5)" fill="none" stroke="#d5d5d5" stroke-width="1"/>
    <g id="Ellipse_10" data-name="Ellipse 10" transform="translate(1273 367)" fill="#a15421" stroke="#a15421" stroke-width="1">
      <circle cx="13" cy="13" r="13" stroke="none"/>
      <circle cx="13" cy="13" r="12.5" fill="none"/>
    </g>
    <line id="Line_11" data-name="Line 11" y1="25" x2="31" transform="translate(1293.5 347.5)" fill="none" stroke="#d5d5d5" stroke-width="1"/>
    <g id="Ellipse_11" data-name="Ellipse 11" transform="translate(1321 343)" fill="#211c1c" stroke="#707070" stroke-width="1">
      <circle cx="4" cy="4" r="4" stroke="none"/>
      <circle cx="4" cy="4" r="3.5" fill="none"/>
    </g>
    <line id="Line_12" data-name="Line 12" x2="65" y2="22" transform="translate(1329.5 347.5)" fill="none" stroke="#d5d5d5" stroke-width="1"/>
    <g id="Ellipse_12" data-name="Ellipse 12" transform="translate(1395 363)" fill="#c9b78f" stroke="#c9b78f" stroke-width="1">
      <circle cx="10" cy="10" r="10" stroke="none"/>
      <circle cx="10" cy="10" r="9.5" fill="none"/>
    </g>
    <line id="Line_13" data-name="Line 13" y1="81" x2="123" transform="translate(1415.5 288.5)" fill="none" stroke="#d5d5d5" stroke-width="1"/>
    <g id="Ellipse_13" data-name="Ellipse 13" transform="translate(1537 268)" fill="#bca872" stroke="#bca872" stroke-width="1">
      <circle cx="13" cy="13" r="13" stroke="none"/>
      <circle cx="13" cy="13" r="12.5" fill="none"/>
    </g>
    <line id="Line_14" data-name="Line 14" y1="47" x2="99" transform="translate(1560.5 229.5)" fill="none" stroke="#d5d5d5" stroke-width="1"/>
    <g id="Union_3" data-name="Union 3" transform="translate(43 142)" fill="#fff" opacity="0.017">
      <path d="M 370.5445251464844 896.5003662109375 C 357.9216918945312 896.5003662109375 345.1917114257812 895.864501953125 332.7084350585938 894.610595703125 C 320.4058227539062 893.3749389648438 308.0438842773438 891.5088500976562 295.966064453125 889.0642700195312 C 272.2069091796875 884.255615234375 248.8367004394531 877.0801391601562 226.5047454833984 867.7377319335938 C 204.5780029296875 858.564697265625 183.4297485351562 847.2109985351562 163.6471405029297 833.9921264648438 C 144.0525665283203 820.8986206054688 125.6267013549805 805.8618774414062 108.8814849853516 789.2992553710938 C 92.13626861572266 772.7368774414062 76.93366241455078 754.5120849609375 63.69583511352539 735.1316528320312 C 50.33148574829102 715.5653686523438 38.85279083251953 694.6484375 29.57887649536133 672.961669921875 C 20.13344192504883 650.8740844726562 12.87931156158447 627.7599487304688 8.017789840698242 604.2610473632812 C 5.546267986297607 592.3153686523438 3.659746408462524 580.0888671875 2.410398483276367 567.9212646484375 C 1.142789840698242 555.57470703125 0.4999637007713318 542.9842529296875 0.4999637007713318 530.4996948242188 C 0.4999637007713318 518.01513671875 1.142789840698242 505.4249267578125 2.410398483276367 493.0783996582031 C 3.659746408462524 480.9105834960938 5.546267986297607 468.6842956542969 8.017789840698242 456.7386169433594 C 12.87931156158447 433.2399291992188 20.13344192504883 410.1255798339844 29.57887649536133 388.0382080078125 C 38.85279083251953 366.3514709472656 50.33148574829102 345.4345092773438 63.69583511352539 325.8681945800781 C 76.93366241455078 306.4877624511719 92.13626861572266 288.26318359375 108.8814849853516 271.7008056640625 C 125.6267013549805 255.1381988525391 144.0525665283203 240.1014556884766 163.6471405029297 227.0079803466797 C 183.4297485351562 213.7890625 204.5780029296875 202.4353637695312 226.5047454833984 193.2623291015625 C 248.8367004394531 183.9199371337891 272.2069091796875 176.7445068359375 295.966064453125 171.9358062744141 C 308.0438842773438 169.4912414550781 320.4058227539062 167.6251525878906 332.7084350585938 166.3894958496094 C 345.1917114257812 165.1355895996094 357.9216918945312 164.4997253417969 370.5445251464844 164.4997253417969 C 383.4475708007812 164.4997253417969 396.4577941894531 165.1638488769531 409.2136535644531 166.4738464355469 C 421.7812805175781 167.7644958496094 434.4053955078125 169.7131958007812 446.7351684570312 172.2653656005859 C 470.98583984375 177.2853698730469 494.8086547851562 184.7710266113281 517.5423583984375 194.5142822265625 C 539.863037109375 204.0805816650391 561.3403930664062 215.91015625 581.3778076171875 229.6742858886719 C 601.233642578125 243.3136291503906 619.830810546875 258.9581909179688 636.652587890625 276.1734008789062 L 637.5206298828125 277.0618896484375 L 637.5101928710938 275.8199462890625 C 637.50341796875 275.0349426269531 637.5001831054688 274.2544860839844 637.5001831054688 273.5001525878906 C 637.5001831054688 254.9775390625 639.3869018554688 236.4666748046875 643.1082153320312 218.4816741943359 C 646.7347412109375 200.9540710449219 652.146240234375 183.7131958007812 659.192138671875 167.2381896972656 C 666.1101684570312 151.0621032714844 674.6730346679688 135.4601593017578 684.642333984375 120.8658065795898 C 694.517333984375 106.4097213745117 705.8582153320312 92.81580352783203 718.3497314453125 80.46189117431641 C 730.8412475585938 68.10775756835938 744.5864868164062 56.89167404174805 759.2036743164062 47.12537002563477 C 773.9608154296875 37.26515197753906 789.7369384765625 28.79645729064941 806.0936889648438 21.95428276062012 C 822.7528076171875 14.98558712005615 840.1864624023438 9.633413314819336 857.9099731445312 6.046456813812256 C 876.0962524414062 2.366022109985352 894.8140869140625 0.4999352097511292 913.5440673828125 0.4999352097511292 C 930.0477905273438 0.4999352097511292 946.5823364257812 1.951239585876465 962.6886596679688 4.813196182250977 C 978.4216918945312 7.609065532684326 993.9960327148438 11.79493522644043 1008.978881835938 17.2542839050293 C 1023.696044921875 22.61689186096191 1038.0556640625 29.28536987304688 1051.658935546875 37.07450103759766 C 1065.10888671875 44.77580642700195 1077.999267578125 53.67515182495117 1089.972534179688 63.52558898925781 C 1101.896728515625 73.33580780029297 1113.0634765625 84.21428680419922 1123.16259765625 95.85928344726562 C 1133.296020507812 107.5438461303711 1142.484252929688 120.1497192382812 1150.471923828125 133.3264617919922 C 1158.54541015625 146.6449279785156 1165.500610351562 160.7260284423828 1171.14404296875 175.1784210205078 C 1176.88623046875 189.8834075927734 1181.353637695312 205.1882019042969 1184.422607421875 220.6671142578125 L 1184.683227539062 221.9825439453125 L 1185.347412109375 220.8175506591797 C 1213.270385742188 171.8353729248047 1253.8427734375 130.7055816650391 1302.678466796875 101.8745040893555 C 1327.380126953125 87.29145812988281 1353.915649414062 76.02232360839844 1381.547729492188 68.38037109375 C 1410.052978515625 60.49689102172852 1439.659301757812 56.49971771240234 1469.544311523438 56.49971771240234 C 1491.666748046875 56.49971771240234 1513.775024414062 58.70428466796875 1535.255004882812 63.0518913269043 C 1556.188842773438 67.28928375244141 1576.780151367188 73.61167144775391 1596.456909179688 81.84384918212891 C 1615.776245117188 89.92667388916016 1634.409912109375 99.93102264404297 1651.840209960938 111.5788497924805 C 1669.10498046875 123.1160202026367 1685.339965820312 136.3657989501953 1700.094116210938 150.959716796875 C 1714.848266601562 165.5538482666016 1728.2431640625 181.6123199462891 1739.906860351562 198.6894989013672 C 1751.682373046875 215.9301452636719 1761.796020507812 234.3610229492188 1769.967407226562 253.4703674316406 C 1778.28955078125 272.9325561523438 1784.681274414062 293.2994995117188 1788.964721679688 314.00537109375 C 1793.359985351562 335.25146484375 1795.588623046875 357.1188354492188 1795.588623046875 378.9999389648438 C 1795.588623046875 400.8810119628906 1793.359985351562 422.7484130859375 1788.964721679688 443.9945068359375 C 1784.681274414062 464.7003784179688 1778.28955078125 485.0673217773438 1769.967407226562 504.5295104980469 C 1761.796020507812 523.6388549804688 1751.682373046875 542.0697021484375 1739.906860351562 559.3103637695312 C 1728.2431640625 576.3873291015625 1714.848266601562 592.446044921875 1700.094116210938 607.0399169921875 C 1685.339965820312 621.6340942382812 1669.10498046875 634.8836059570312 1651.840209960938 646.4207763671875 C 1634.409912109375 658.06884765625 1615.776245117188 668.072998046875 1596.456909179688 676.1558227539062 C 1576.780151367188 684.3880004882812 1556.188842773438 690.7103881835938 1535.255004882812 694.94775390625 C 1513.775024414062 699.2953491210938 1491.666748046875 701.4999389648438 1469.544311523438 701.4999389648438 C 1449.21142578125 701.4999389648438 1428.8564453125 699.6353759765625 1409.044311523438 695.9581909179688 C 1389.7060546875 692.3690795898438 1370.600219726562 687.0010375976562 1352.25732421875 680.003173828125 C 1334.2431640625 673.1310424804688 1316.727783203125 664.5975341796875 1300.197631835938 654.6397094726562 C 1283.845825195312 644.7894897460938 1268.262573242188 633.4284057617188 1253.88037109375 620.8721313476562 C 1239.539916992188 608.3523559570312 1226.230590820312 594.5018920898438 1214.321899414062 579.70556640625 C 1202.350341796875 564.8314819335938 1191.65673828125 548.8299560546875 1182.537841796875 532.1453857421875 C 1173.299072265625 515.2418823242188 1165.562744140625 497.4273376464844 1159.543701171875 479.1966857910156 C 1153.403198242188 460.5979919433594 1148.965576171875 441.3084106445312 1146.354736328125 421.8634033203125 L 1146.176025390625 420.5327758789062 L 1145.440795898438 421.6560363769531 C 1133.190673828125 440.3708190917969 1118.620239257812 457.5973205566406 1102.133911132812 472.8575439453125 C 1085.6123046875 488.1499328613281 1067.235229492188 501.4038391113281 1047.512817382812 512.251220703125 C 1027.448852539062 523.2862548828125 1006.040588378906 531.80078125 983.8823852539062 537.5579833984375 C 961.0462646484375 543.49169921875 937.3810424804688 546.5001220703125 913.5440673828125 546.5001220703125 C 897.2086791992188 546.5001220703125 880.8386840820312 545.0777587890625 864.8890991210938 542.2723388671875 C 849.3069458007812 539.5314331054688 833.87451171875 535.4271240234375 819.0208129882812 530.0734252929688 C 804.43017578125 524.8145141601562 790.1825561523438 518.27294921875 776.6736450195312 510.6307983398438 C 763.3186645507812 503.0755920410156 750.5029907226562 494.3416748046875 738.582763671875 484.6714477539062 L 737.6175537109375 483.888427734375 L 737.771728515625 485.1216735839844 C 739.640380859375 500.0725402832031 740.5877685546875 515.3399047851562 740.5877685546875 530.4996948242188 C 740.5877685546875 542.9842529296875 739.9449462890625 555.57470703125 738.6773681640625 567.9212646484375 C 737.427978515625 580.0888671875 735.54150390625 592.3153686523438 733.0699462890625 604.2610473632812 C 728.2084350585938 627.7599487304688 720.9542846679688 650.8740844726562 711.5088500976562 672.961669921875 C 702.2349853515625 694.6484375 690.7564697265625 715.5653686523438 677.3919067382812 735.1316528320312 C 664.154296875 754.5120849609375 648.9517211914062 772.7368774414062 632.2064819335938 789.2992553710938 C 615.4612426757812 805.8618774414062 597.03564453125 820.8986206054688 577.4410400390625 833.9921264648438 C 557.6586303710938 847.2109985351562 536.5103759765625 858.564697265625 514.5836791992188 867.7377319335938 C 492.251708984375 877.0801391601562 468.8817138671875 884.255615234375 445.122802734375 889.0642700195312 C 433.0447387695312 891.5088500976562 420.6830139160156 893.3749389648438 408.3804016113281 894.610595703125 C 395.8971252441406 895.864501953125 383.1673583984375 896.5003662109375 370.5445251464844 896.5003662109375 Z" stroke="none"/>
      <path d="M 370.5445251464844 896.0003662109375 C 383.1508483886719 896.0003662109375 395.8638916015625 895.3653564453125 408.3303833007812 894.1132202148438 C 420.6164855957031 892.8790893554688 432.9619140625 891.0155639648438 445.0236511230469 888.5742797851562 C 468.7503967285156 883.7719116210938 492.0888671875 876.6064453125 514.3908081054688 867.2764282226562 C 536.2877807617188 858.1157836914062 557.4075927734375 846.7775268554688 577.1632080078125 833.5762329101562 C 596.7312622070312 820.5006103515625 615.1323852539062 805.4840698242188 631.85498046875 788.94384765625 C 648.5775756835938 772.4036254882812 663.7593383789062 754.203857421875 676.9790649414062 734.8497314453125 C 690.3251953125 715.3103637695312 701.7880249023438 694.422119140625 711.04931640625 672.76513671875 C 720.4815063476562 650.7081909179688 727.7255859375 627.6260375976562 732.5803833007812 604.1597290039062 C 735.0484619140625 592.2305908203125 736.932373046875 580.02099609375 738.1799926757812 567.8701782226562 C 739.4458618164062 555.5405883789062 740.0877685546875 542.9673461914062 740.0877685546875 530.4996948242188 C 740.0877685546875 515.360595703125 739.1417236328125 500.1140747070312 737.275634765625 485.183837890625 L 736.9671630859375 482.7168884277344 L 738.8977661132812 484.283203125 C 750.7965087890625 493.935791015625 763.589111328125 502.654052734375 776.9199829101562 510.1955871582031 C 790.404296875 517.8240356445312 804.6260375976562 524.3536376953125 819.1903686523438 529.6029663085938 C 834.0171508789062 534.9470825195312 849.4216918945312 539.0438232421875 864.975830078125 541.7797241210938 C 880.8969116210938 544.5801391601562 897.237548828125 546.0001220703125 913.5440673828125 546.0001220703125 C 937.3386840820312 546.0001220703125 960.9614868164062 542.9971313476562 983.7567138671875 537.0740356445312 C 1005.874755859375 531.3270874023438 1027.244262695312 522.8281860351562 1047.27197265625 511.81298828125 C 1066.958618164062 500.9853820800781 1085.302612304688 487.75537109375 1101.794067382812 472.4906005859375 C 1118.250610351562 457.2582092285156 1132.794799804688 440.0627746582031 1145.022338867188 421.38232421875 L 1146.492797851562 419.1358032226562 L 1146.850219726562 421.7969055175781 C 1149.457153320312 441.2112426757812 1153.887573242188 460.4705810546875 1160.018432617188 479.0399475097656 C 1166.028198242188 497.2420959472656 1173.752319335938 515.0286254882812 1182.976440429688 531.9055786132812 C 1192.08154296875 548.5642700195312 1202.758422851562 564.541015625 1214.711303710938 579.39208984375 C 1226.601684570312 594.1655883789062 1239.890869140625 607.9949340820312 1254.209350585938 620.495361328125 C 1268.569580078125 633.0325317382812 1284.12890625 644.376220703125 1300.45556640625 654.2114868164062 C 1316.96044921875 664.1538696289062 1334.449096679688 672.6742553710938 1352.435668945312 679.5360107421875 C 1370.750366210938 686.52294921875 1389.826904296875 691.8829956054688 1409.135620117188 695.4666748046875 C 1428.917602539062 699.13818359375 1449.2421875 700.9999389648438 1469.544311523438 700.9999389648438 C 1491.633422851562 700.9999389648438 1513.708251953125 698.798828125 1535.155883789062 694.45751953125 C 1556.0576171875 690.2268676757812 1576.617309570312 683.9140625 1596.263916015625 675.6945190429688 C 1615.5537109375 667.6240844726562 1634.158935546875 657.6351318359375 1651.562377929688 646.005126953125 C 1668.80078125 634.485595703125 1685.010864257812 621.2562255859375 1699.742553710938 606.6845092773438 C 1714.47412109375 592.1129760742188 1727.848388671875 576.0790405273438 1739.494140625 559.0284423828125 C 1751.251098632812 541.8145141601562 1761.34912109375 523.412353515625 1769.507568359375 504.3329772949219 C 1777.816650390625 484.9012451171875 1784.198486328125 464.5664672851562 1788.475219726562 443.8931884765625 C 1792.863647460938 422.6803588867188 1795.088623046875 400.8471069335938 1795.088623046875 378.9999389648438 C 1795.088623046875 357.1527709960938 1792.863647460938 335.3194885253906 1788.475219726562 314.106689453125 C 1784.198486328125 293.4334106445312 1777.816650390625 273.0986328125 1769.507568359375 253.6668853759766 C 1761.34912109375 234.5875396728516 1751.251098632812 216.1853637695312 1739.494140625 198.9714508056641 C 1727.848388671875 181.9208068847656 1714.47412109375 165.8868865966797 1699.742553710938 151.3153686523438 C 1685.010864257812 136.743408203125 1668.80078125 123.5140686035156 1651.562377929688 111.994499206543 C 1634.158935546875 100.364501953125 1615.5537109375 90.37558746337891 1596.263916015625 82.30515289306641 C 1576.617309570312 74.08558654785156 1556.0576171875 67.77275848388672 1535.155883789062 63.54211044311523 C 1513.708251953125 59.2008056640625 1491.633422851562 56.99971771240234 1469.544311523438 56.99971771240234 C 1439.704345703125 56.99971771240234 1410.14306640625 60.99080657958984 1381.681030273438 68.86232757568359 C 1354.09130859375 76.49254608154297 1327.596435546875 87.74428558349609 1302.9326171875 102.3051528930664 C 1254.171752929688 131.0921020507812 1213.661743164062 172.1586303710938 1185.78173828125 221.0651550292969 L 1184.45361328125 223.3949279785156 L 1183.93212890625 220.7644958496094 C 1180.869140625 205.3140716552734 1176.409790039062 190.0379791259766 1170.678466796875 175.3603668212891 C 1165.04541015625 160.9344940185547 1158.10302734375 146.8795013427734 1150.044311523438 133.5855865478516 C 1142.071533203125 120.432975769043 1132.900024414062 107.8501510620117 1122.784790039062 96.18667602539062 C 1112.7041015625 84.56298065185547 1101.5576171875 73.70406341552734 1089.65478515625 63.91167449951172 C 1077.703491210938 54.07906723022461 1064.836059570312 45.19580459594727 1051.410400390625 37.50819778442383 C 1037.831909179688 29.73319625854492 1023.498229980469 23.07689094543457 1008.807556152344 17.72406578063965 C 993.8519287109375 12.27450084686279 978.3058471679688 8.096456527709961 962.6012573242188 5.305587291717529 C 946.523681640625 2.448630809783936 930.0184326171875 0.9999352097511292 913.5440673828125 0.9999352097511292 C 894.8473510742188 0.9999352097511292 876.1627807617188 2.862761259078979 858.0093383789062 6.536674499511719 C 840.3175659179688 10.11710929870605 822.9155883789062 15.45950031280518 806.2866821289062 22.41558647155762 C 789.9595336914062 29.24537086486816 774.2119140625 37.69884872436523 759.4812622070312 47.54102325439453 C 744.890625 57.28971862792969 731.170166015625 68.48558807373047 718.7012939453125 80.81732940673828 C 706.2323608398438 93.14906311035156 694.912353515625 106.7179794311523 685.055419921875 121.1477584838867 C 675.1040649414062 135.7153625488281 666.55712890625 151.2886352539062 659.6519165039062 167.4349365234375 C 652.6190795898438 183.8792877197266 647.2177734375 201.0879821777344 643.5977783203125 218.5829772949219 C 639.8834228515625 236.5347137451172 638.0001831054688 255.0114593505859 638.0001831054688 273.5001525878906 C 638.0001831054688 274.2529907226562 638.00341796875 275.0321044921875 638.0101928710938 275.8155822753906 L 638.0310668945312 278.2997131347656 L 636.2949829101562 276.5229797363281 C 619.495849609375 259.330810546875 600.9238891601562 243.7073211669922 581.0947265625 230.0864562988281 C 561.0842895507812 216.3408050537109 539.6358032226562 204.5271148681641 517.3453979492188 194.9738464355469 C 494.6423645019531 185.2436370849609 470.8517150878906 177.7681884765625 446.6338806152344 172.7551574707031 C 434.3206176757812 170.2062377929688 421.7134399414062 168.2601470947266 409.1625671386719 166.9712371826172 C 396.4236450195312 165.6629791259766 383.4306030273438 164.9997253417969 370.5445251464844 164.9997253417969 C 357.938232421875 164.9997253417969 345.2251892089844 165.6347198486328 332.7584533691406 166.8868865966797 C 320.4723510742188 168.1210174560547 308.1269226074219 169.9844970703125 296.065185546875 172.4258117675781 C 272.3382263183594 177.2281951904297 248.9995269775391 184.3936309814453 226.6975708007812 193.7236328125 C 204.8006134033203 202.88427734375 183.6808319091797 214.2225494384766 163.9249572753906 227.4236297607422 C 144.3567047119141 240.4994964599609 125.9558334350586 255.5160217285156 109.2330093383789 272.0562438964844 C 92.51039886474609 288.5962524414062 77.32844543457031 306.7960205078125 64.10887908935547 326.1503601074219 C 50.7625732421875 345.6897277832031 39.29974746704102 366.5777587890625 30.03866004943848 388.2347106933594 C 20.60626792907715 410.2916870117188 13.36213779449463 433.3738403320312 8.507354736328125 456.8399353027344 C 6.039311408996582 468.7690734863281 4.155398368835449 480.9786376953125 2.907789707183838 493.1294860839844 C 1.641920208930969 505.4590759277344 0.9999637007713318 518.0321044921875 0.9999637007713318 530.4996948242188 C 0.9999637007713318 542.9673461914062 1.641920208930969 555.5405883789062 2.907789707183838 567.8701782226562 C 4.155398368835449 580.02099609375 6.039311408996582 592.2305908203125 8.507354736328125 604.1597290039062 C 13.36213779449463 627.6260375976562 20.60626792907715 650.7081909179688 30.03866004943848 672.76513671875 C 39.29974746704102 694.422119140625 50.7625732421875 715.3103637695312 64.10887908935547 734.8497314453125 C 77.32844543457031 754.203857421875 92.51039886474609 772.4036254882812 109.2330093383789 788.94384765625 C 125.9558334350586 805.4840698242188 144.3567047119141 820.5006103515625 163.9249572753906 833.5762329101562 C 183.6808319091797 846.7775268554688 204.8006134033203 858.1157836914062 226.6975708007812 867.2764282226562 C 248.9995269775391 876.6064453125 272.3382263183594 883.7719116210938 296.065185546875 888.5742797851562 C 308.1269226074219 891.0155639648438 320.4723510742188 892.8790893554688 332.7584533691406 894.1132202148438 C 345.2251892089844 895.3653564453125 357.938232421875 896.0003662109375 370.5445251464844 896.0003662109375 M 370.5445251464844 897.0003662109375 C 165.8980102539062 897.0003662109375 -3.630264836829156e-05 732.912353515625 -3.630264836829156e-05 530.4996948242188 C -3.630264836829156e-05 328.0877685546875 165.8980102539062 163.9997253417969 370.5445251464844 163.9997253417969 C 475.1530151367188 163.9997253417969 569.6334228515625 206.8714599609375 637.0101928710938 275.8240661621094 C 637.003662109375 275.0512390136719 637.0001831054688 274.2745056152344 637.0001831054688 273.5001525878906 C 637.0001831054688 122.4503707885742 760.813232421875 -6.480341107817367e-05 913.5440673828125 -6.480341107817367e-05 C 1047.966674804688 -6.480341107817367e-05 1159.988037109375 94.8486328125 1184.912963867188 220.5699310302734 C 1240.917358398438 122.3277587890625 1347.39501953125 55.99971771240234 1469.544311523438 55.99971771240234 C 1649.889038085938 55.99971771240234 1796.088623046875 200.6118927001953 1796.088623046875 378.9999389648438 C 1796.088623046875 557.3880004882812 1649.889038085938 701.9999389648438 1469.544311523438 701.9999389648438 C 1303.915649414062 701.9999389648438 1167.08740234375 580.0201416015625 1145.859130859375 421.929931640625 C 1096.59326171875 497.1944885253906 1010.949340820312 547.0001220703125 913.5440673828125 547.0001220703125 C 847.0225830078125 547.0001220703125 785.9771118164062 523.763427734375 738.2677612304688 485.0597229003906 C 740.1279907226562 499.9429931640625 741.0877685546875 515.11865234375 741.0877685546875 530.4996948242188 C 741.0877685546875 732.912353515625 575.18994140625 897.0003662109375 370.5445251464844 897.0003662109375 Z" stroke="none" fill="#707070"/>
    </g>
    <g id="Ellipse_17" data-name="Ellipse 17" transform="translate(325 114)" fill="#ecbb45" stroke="#ecbb45" stroke-width="1" opacity="0.053">
      <circle cx="17" cy="17" r="17" stroke="none"/>
      <circle cx="17" cy="17" r="16.5" fill="none"/>
    </g>
    <g id="Ellipse_18" data-name="Ellipse 18" transform="translate(926 838)" fill="#ecbb45" stroke="#ecbb45" stroke-width="1" opacity="0.053">
      <circle cx="17" cy="17" r="17" stroke="none"/>
      <circle cx="17" cy="17" r="16.5" fill="none"/>
    </g>
    <g id="Ellipse_20" data-name="Ellipse 20" transform="translate(1839 552)" fill="#ecbb45" stroke="#ecbb45" stroke-width="1" opacity="0.053">
      <circle cx="17" cy="17" r="17" stroke="none"/>
      <circle cx="17" cy="17" r="16.5" fill="none"/>
    </g>
    <g id="Ellipse_22" data-name="Ellipse 22" transform="translate(1591 792)" fill="#ecbb45" stroke="#ecbb45" stroke-width="1" opacity="0.053">
      <circle cx="98.5" cy="98.5" r="98.5" stroke="none"/>
      <circle cx="98.5" cy="98.5" r="98" fill="none"/>
    </g>
    <g id="Ellipse_23" data-name="Ellipse 23" transform="translate(26 262)" fill="#ecbb45" stroke="#ecbb45" stroke-width="1" opacity="0.053">
      <circle cx="98.5" cy="98.5" r="98.5" stroke="none"/>
      <circle cx="98.5" cy="98.5" r="98" fill="none"/>
    </g>
    <g id="Ellipse_25" data-name="Ellipse 25" transform="translate(1106 890)" fill="#a15421" stroke="#a15421" stroke-width="1" opacity="0.053">
      <circle cx="62" cy="62" r="62" stroke="none"/>
      <circle cx="62" cy="62" r="61.5" fill="none"/>
    </g>
    <g id="Ellipse_26" data-name="Ellipse 26" transform="translate(738 677)" fill="#a15421" stroke="#a15421" stroke-width="1" opacity="0.053">
      <circle cx="45.5" cy="45.5" r="45.5" stroke="none"/>
      <circle cx="45.5" cy="45.5" r="45" fill="none"/>
    </g>
    <g id="Ellipse_27" data-name="Ellipse 27" transform="translate(1733 286)" fill="#a15421" stroke="#a15421" stroke-width="1" opacity="0.053">
      <circle cx="27.5" cy="27.5" r="27.5" stroke="none"/>
      <circle cx="27.5" cy="27.5" r="27" fill="none"/>
    </g>
    <g id="Ellipse_28" data-name="Ellipse 28" transform="translate(960 214)" fill="#ecbb45" stroke="#ecbb45" stroke-width="1" opacity="0.053">
      <circle cx="37" cy="37" r="37" stroke="none"/>
      <circle cx="37" cy="37" r="36.5" fill="none"/>
    </g>
    <g id="Ellipse_29" data-name="Ellipse 29" transform="translate(1252 25)" fill="#a15421" stroke="#a15421" stroke-width="1" opacity="0.053">
      <circle cx="62" cy="62" r="62" stroke="none"/>
      <circle cx="62" cy="62" r="61.5" fill="none"/>
    </g>
    <g id="Ellipse_30" data-name="Ellipse 30" transform="translate(70 952)" fill="#a15421" stroke="#a15421" stroke-width="1" opacity="0.053">
      <circle cx="27.5" cy="27.5" r="27.5" stroke="none"/>
      <circle cx="27.5" cy="27.5" r="27" fill="none"/>
    </g>
    <g id="Ellipse_31" data-name="Ellipse 31" transform="translate(1652 211)" fill="#1c1c1c" stroke="#777" stroke-width="1">
      <circle cx="18" cy="18" r="18" stroke="none"/>
      <circle cx="18" cy="18" r="17.5" fill="none"/>
    </g>
  </g>
</svg>
