<svg xmlns="http://www.w3.org/2000/svg" xmlns:xlink="http://www.w3.org/1999/xlink" width="1920" height="1080" viewBox="0 0 1920 1080">
  <defs>
    <clipPath id="clip-Web_1920_1">
      <rect width="1920" height="1080"/>
    </clipPath>
  </defs>
  <g id="Web_1920_1" data-name="Web 1920 – 1" clip-path="url(#clip-Web_1920_1)">
    <rect width="1920" height="1080" fill="#363434"/>
    <line id="Line_1" data-name="Line 1" y1="198" x2="263" transform="translate(0.5 731.5)" fill="none" stroke="#d5d5d5" stroke-width="1"/>
    <g id="Ellipse_1" data-name="Ellipse 1" transform="translate(258 728)" fill="#a97524" stroke="#a97524" stroke-width="1">
      <circle cx="5" cy="5" r="5" stroke="none"/>
      <circle cx="5" cy="5" r="4.5" fill="none"/>
    </g>
    <line id="Line_2" data-name="Line 2" x1="145" y1="67" transform="translate(268.5 734.5)" fill="none" stroke="#d5d5d5" stroke-width="1"/>
    <g id="Ellipse_2" data-name="Ellipse 2" transform="translate(410 789)" fill="#f2ce76" stroke="#707070" stroke-width="1">
      <circle cx="15" cy="15" r="15" stroke="none"/>
      <circle cx="15" cy="15" r="14.5" fill="none"/>
    </g>
    <line id="Line_3" data-name="Line 3" y1="102" x2="172" transform="translate(436.5 691.5)" fill="none" stroke="#d5d5d5" stroke-width="1"/>
    <g id="Path_2" data-name="Path 2" transform="translate(593 682)" fill="#211c1c">
      <path d="M 10 19.5 C 4.761680126190186 19.5 0.5 15.23832035064697 0.5 10 C 0.5 4.761680126190186 4.761680126190186 0.5 10 0.5 C 15.23832035064697 0.5 19.5 4.761680126190186 19.5 10 C 19.5 15.23832035064697 15.23832035064697 19.5 10 19.5 Z" stroke="none"/>
      <path d="M 10 1 C 5.037380218505859 1 1 5.037380218505859 1 10 C 1 14.96261978149414 5.037380218505859 19 10 19 C 14.96261978149414 19 19 14.96261978149414 19 10 C 19 5.037380218505859 14.96261978149414 1 10 1 M 10 0 C 15.52285003662109 0 20 4.477149963378906 20 10 C 20 15.52285003662109 15.52285003662109 20 10 20 C 4.477149963378906 20 0 15.52285003662109 0 10 C 0 4.477149963378906 4.477149963378906 0 10 0 Z" stroke="none" fill="#211c1c"/>
    </g>
    <line id="Line_4" data-name="Line 4" y1="128" x2="128" transform="translate(610.5 557.5)" fill="none" stroke="#d5d5d5" stroke-width="1"/>
    <g id="Ellipse_4" data-name="Ellipse 4" transform="translate(738 549)" fill="#a97524" stroke="#a97524" stroke-width="1">
      <circle cx="5" cy="5" r="5" stroke="none"/>
      <circle cx="5" cy="5" r="4.5" fill="none"/>
    </g>
    <line id="Line_5" data-name="Line 5" x2="42" y2="10" transform="translate(748.5 554.5)" fill="none" stroke="#d5d5d5" stroke-width="1"/>
    <g id="Ellipse_5" data-name="Ellipse 5" transform="translate(791 563)" fill="#211c1c" stroke="#211c1c" stroke-width="1">
      <circle cx="2.5" cy="2.5" r="2.5" stroke="none"/>
      <circle cx="2.5" cy="2.5" r="2" fill="none"/>
    </g>
    <line id="Line_6" data-name="Line 6" y1="45" x2="93" transform="translate(796.5 517.5)" fill="none" stroke="#d5d5d5" stroke-width="1"/>
    <g id="Ellipse_6" data-name="Ellipse 6" transform="translate(886 505)" fill="#ecbb45" stroke="#ecbb45" stroke-width="1">
      <circle cx="9" cy="9" r="9" stroke="none"/>
      <circle cx="9" cy="9" r="8.5" fill="none"/>
    </g>
    <line id="Line_7" data-name="Line 7" x2="107" y2="61" transform="translate(904.5 517.5)" fill="none" stroke="#d5d5d5" stroke-width="1"/>
    <g id="Path_1" data-name="Path 1" transform="translate(1003 568)" fill="#bca872">
      <path d="M 20 39.5 C 17.36730003356934 39.5 14.8136100769043 38.98448944091797 12.40987968444824 37.96780014038086 C 10.08788967132568 36.98567962646484 8.002429962158203 35.57958984375 6.211420059204102 33.78858184814453 C 4.42041015625 31.99757957458496 3.014319896697998 29.9121208190918 2.03220009803772 27.59012985229492 C 1.015509963035583 25.1863899230957 0.5 22.63269996643066 0.5 20 C 0.5 17.36730003356934 1.015509963035583 14.8136100769043 2.03220009803772 12.40987968444824 C 3.014319896697998 10.08788967132568 4.42041015625 8.002429962158203 6.211420059204102 6.211420059204102 C 8.002429962158203 4.42041015625 10.08788967132568 3.014319896697998 12.40987968444824 2.03220009803772 C 14.8136100769043 1.015509963035583 17.36730003356934 0.5 20 0.5 C 22.63269996643066 0.5 25.1863899230957 1.015509963035583 27.59012985229492 2.03220009803772 C 29.9121208190918 3.014319896697998 31.99757957458496 4.42041015625 33.78858184814453 6.211420059204102 C 35.57958984375 8.002429962158203 36.98567962646484 10.08788967132568 37.96780014038086 12.40987968444824 C 38.98448944091797 14.8136100769043 39.5 17.36730003356934 39.5 20 C 39.5 22.63269996643066 38.98448944091797 25.1863899230957 37.96780014038086 27.59012985229492 C 36.98567962646484 29.9121208190918 35.57958984375 31.99757957458496 33.78858184814453 33.78858184814453 C 31.99757957458496 35.57958984375 29.9121208190918 36.98567962646484 27.59012985229492 37.96780014038086 C 25.1863899230957 38.98448944091797 22.63269996643066 39.5 20 39.5 Z" stroke="none"/>
      <path d="M 20 1 C 17.4345703125 1 14.94642066955566 1.502220153808594 12.60465049743652 2.492698669433594 C 10.34226036071777 3.449611663818359 8.310220718383789 4.819721221923828 6.564968109130859 6.564968109130859 C 4.819721221923828 8.310220718383789 3.449611663818359 10.34226036071777 2.492698669433594 12.60465049743652 C 1.502220153808594 14.94642066955566 1 17.4345703125 1 20 C 1 22.5654296875 1.502220153808594 25.05358123779297 2.492698669433594 27.39535140991211 C 3.449611663818359 29.65773963928223 4.819721221923828 31.68978118896484 6.564968109130859 33.43502807617188 C 8.310220718383789 35.18027877807617 10.34226036071777 36.55038833618164 12.60465049743652 37.50730133056641 C 14.94642066955566 38.49777984619141 17.4345703125 39 20 39 C 22.5654296875 39 25.05358123779297 38.49777984619141 27.39535140991211 37.50730133056641 C 29.65773963928223 36.55038833618164 31.68978118896484 35.18027877807617 33.43502807617188 33.43502807617188 C 35.18027877807617 31.68978118896484 36.55038833618164 29.65773963928223 37.50730133056641 27.39535140991211 C 38.49777984619141 25.05358123779297 39 22.5654296875 39 20 C 39 17.4345703125 38.49777984619141 14.94642066955566 37.50730133056641 12.60465049743652 C 36.55038833618164 10.34226036071777 35.18027877807617 8.310220718383789 33.43502807617188 6.564968109130859 C 31.68978118896484 4.819721221923828 29.65773963928223 3.449611663818359 27.39535140991211 2.492698669433594 C 25.05358123779297 1.502220153808594 22.5654296875 1 20 1 M 20 0 C 31.04570007324219 0 40 8.954299926757812 40 20 C 40 31.04570007324219 31.04570007324219 40 20 40 C 8.954299926757812 40 0 31.04570007324219 0 20 C 0 8.954299926757812 8.954299926757812 0 20 0 Z" stroke="none" fill="#bca872"/>
    </g>
    <line id="Line_8" data-name="Line 8" y1="14" x2="62" transform="translate(1043.5 574.5)" fill="none" stroke="#d5d5d5" stroke-width="1"/>
    <g id="Ellipse_8" data-name="Ellipse 8" transform="translate(1106 565)" fill="#211c1c" stroke="#211c1c" stroke-width="1">
      <circle cx="5" cy="5" r="5" stroke="none"/>
      <circle cx="5" cy="5" r="4.5" fill="none"/>
    </g>
    <line id="Line_9" data-name="Line 9" y1="140" x2="110" transform="translate(1113.5 428.5)" fill="none" stroke="#d5d5d5" stroke-width="1"/>
    <g id="Ellipse_9" data-name="Ellipse 9" transform="translate(1217 421)" fill="#a97524" stroke="#a97524" stroke-width="1">
      <circle cx="6.5" cy="6.5" r="6.5" stroke="none"/>
      <circle cx="6.5" cy="6.5" r="6" fill="none"/>
    </g>
    <line id="Line_10" data-name="Line 10" y1="37" x2="46" transform="translate(1228.5 387.5)" fill="none" stroke="#d5d5d5" stroke-width="1"/>
    <g id="Ellipse_10" data-name="Ellipse 10" transform="translate(1273 367)" fill="#a15421" stroke="#a15421" stroke-width="1">
      <circle cx="13" cy="13" r="13" stroke="none"/>
      <circle cx="13" cy="13" r="12.5" fill="none"/>
    </g>
    <line id="Line_11" data-name="Line 11" y1="26" x2="26" transform="translate(1295.5 345.5)" fill="none" stroke="#d5d5d5" stroke-width="1"/>
    <g id="Ellipse_11" data-name="Ellipse 11" transform="translate(1314 338)" fill="#211c1c" stroke="#211c1c" stroke-width="1">
      <circle cx="8" cy="8" r="8" stroke="none"/>
      <circle cx="8" cy="8" r="7.5" fill="none"/>
    </g>
    <line id="Line_12" data-name="Line 12" x2="65" y2="22" transform="translate(1329.5 347.5)" fill="none" stroke="#d5d5d5" stroke-width="1"/>
    <g id="Ellipse_12" data-name="Ellipse 12" transform="translate(1395 363)" fill="#c9b78f" stroke="#c9b78f" stroke-width="1">
      <circle cx="10" cy="10" r="10" stroke="none"/>
      <circle cx="10" cy="10" r="9.5" fill="none"/>
    </g>
    <line id="Line_13" data-name="Line 13" y1="81" x2="123" transform="translate(1415.5 288.5)" fill="none" stroke="#d5d5d5" stroke-width="1"/>
    <g id="Ellipse_13" data-name="Ellipse 13" transform="translate(1537 268)" fill="#bca872" stroke="#bca872" stroke-width="1">
      <circle cx="13" cy="13" r="13" stroke="none"/>
      <circle cx="13" cy="13" r="12.5" fill="none"/>
    </g>
    <line id="Line_14" data-name="Line 14" y1="47" x2="99" transform="translate(1560.5 229.5)" fill="none" stroke="#d5d5d5" stroke-width="1"/>
    <g id="Union_3" data-name="Union 3" transform="translate(-271 346)" fill="#fff" opacity="0.017">
      <path d="M 482.1336975097656 882.5004272460938 C 464.6127624511719 882.5004272460938 446.9430541992188 881.6288452148438 429.6158752441406 879.9104614257812 C 412.539306640625 878.2166748046875 395.3805541992188 875.6588745117188 378.6155700683594 872.3082275390625 C 362.0677490234375 869.0010375976562 345.5061950683594 864.8416748046875 329.3911743164062 859.9463500976562 C 313.4565124511719 855.1054077148438 297.5790100097656 849.4298095703125 282.2002563476562 843.07666015625 C 266.9636840820312 836.7822875976562 251.8574371337891 829.6748046875 237.3011932373047 821.95166015625 C 222.8483734130859 814.2835693359375 208.5999298095703 805.8291625976562 194.9518127441406 796.8235473632812 C 181.36962890625 787.8613891601562 168.0658721923828 778.1451416015625 155.4105682373047 767.9442138671875 C 142.7858734130859 757.7682495117188 130.5139923095703 746.8748168945312 118.9352493286133 735.5660400390625 C 107.3568115234375 724.25732421875 96.20337677001953 712.2713623046875 85.78493499755859 699.9413452148438 C 75.34087371826172 687.5810546875 65.39274597167969 674.587646484375 56.21712493896484 661.3223266601562 C 46.99681091308594 647.9926147460938 38.34087371826172 634.07666015625 30.48993682861328 619.9613647460938 C 22.58274841308594 605.7448120117188 15.30618667602539 590.9913940429688 8.861811637878418 576.1104125976562 C 2.357436418533325 561.091064453125 -3.453188419342041 545.58447265625 -8.409126281738281 530.02197265625 C -13.42131328582764 514.2835693359375 -17.6794376373291 498.10888671875 -21.06537628173828 481.9479370117188 C -24.49568939208984 465.5747985839844 -27.11412620544434 448.8169860839844 -28.84818840026855 432.1398010253906 C -30.60787582397461 415.2176208496094 -31.50006294250488 397.9610595703125 -31.50006294250488 380.8494873046875 C -31.50006294250488 363.7382507324219 -30.60787582397461 346.481689453125 -28.84818840026855 329.5595092773438 C -27.11412620544434 312.88232421875 -24.49568939208984 296.12451171875 -21.06537628173828 279.7513732910156 C -17.6794376373291 263.5904235839844 -13.42131328582764 247.4160614013672 -8.409126281738281 231.6773071289062 C -3.453188419342041 216.1151275634766 2.357436418533325 200.6085662841797 8.861811637878418 185.5891876220703 C 15.30618667602539 170.708251953125 22.58274841308594 155.9548034667969 30.48993682861328 141.7385559082031 C 38.34087371826172 127.622932434082 46.99681091308594 113.7073059082031 56.21712493896484 100.3776245117188 C 65.39274597167969 87.11199951171875 75.34087371826172 74.11887359619141 85.78493499755859 61.75856018066406 C 96.20337677001953 49.42855834960938 107.3568115234375 37.44262313842773 118.9352493286133 26.13387298583984 C 130.5139923095703 14.82512187957764 142.7858734130859 3.931684494018555 155.4105682373047 -6.244253158569336 C 168.0658721923828 -16.44487762451172 181.36962890625 -26.16143989562988 194.9518127441406 -35.12331390380859 C 208.5999298095703 -44.12894058227539 222.8483734130859 -52.58331680297852 237.3011932373047 -60.25175476074219 C 251.8574371337891 -67.97487640380859 266.9636840820312 -75.08237457275391 282.2002563476562 -81.37644195556641 C 297.5790100097656 -87.72956848144531 313.4565124511719 -93.40550231933594 329.3911743164062 -98.24612426757812 C 345.5061950683594 -103.1414413452148 362.0677490234375 -107.3008117675781 378.6155700683594 -110.6080017089844 C 395.3805541992188 -113.958625793457 412.539306640625 -116.5164413452148 429.6158752441406 -118.2101898193359 C 446.9430541992188 -119.9286270141602 464.6127624511719 -120.8001937866211 482.1336975097656 -120.8001937866211 C 500.043701171875 -120.8001937866211 518.1021118164062 -119.8898773193359 535.8080444335938 -118.0942535400391 C 553.25244140625 -116.3251876831055 570.7752685546875 -113.6545639038086 587.8896484375 -110.1561279296875 C 604.7789916992188 -106.7039413452148 621.6734008789062 -102.3633117675781 638.1030883789062 -97.25518798828125 C 654.3471069335938 -92.20487976074219 670.520263671875 -86.28518676757812 686.1730346679688 -79.66081237792969 C 701.6808471679688 -73.09768676757812 717.0399169921875 -65.68956756591797 731.8233642578125 -57.64237976074219 C 746.5033569335938 -49.65143966674805 760.9558715820312 -40.84550476074219 774.7789916992188 -31.46894073486328 C 788.5383911132812 -22.13581466674805 801.9912109375 -12.02237796783447 814.763671875 -1.410190463066101 C 827.5089721679688 9.1798095703125 839.86962890625 20.50949668884277 851.5018310546875 32.26449584960938 L 852.3677368164062 33.13980865478516 L 852.3571166992188 31.90855979919434 C 852.3480834960938 30.8438720703125 852.3433837890625 29.77387237548828 852.3433837890625 28.72855949401855 C 852.3433837890625 15.9635591506958 853.0089721679688 3.090434551239014 854.3218383789062 -9.533627510070801 C 855.6155395507812 -21.97456550598145 857.5689697265625 -34.47581481933594 860.1283569335938 -46.6895637512207 C 865.1627197265625 -70.71643829345703 872.6746215820312 -94.34987640380859 882.4558715820312 -116.9339370727539 C 892.059326171875 -139.1080017089844 903.9461669921875 -160.4951934814453 917.785888671875 -180.5011291503906 C 931.4940185546875 -200.3173828125 947.2371215820312 -218.9517517089844 964.5780639648438 -235.8867492675781 C 981.918701171875 -252.8217468261719 1000.999938964844 -268.1967468261719 1021.29150390625 -281.5848693847656 C 1041.777709960938 -295.1011352539062 1063.678344726562 -306.710205078125 1086.38525390625 -316.0895690917969 C 1109.511840820312 -325.6427001953125 1133.71337890625 -332.9795532226562 1158.318115234375 -337.8964538574219 C 1170.825927734375 -340.3961181640625 1183.62744140625 -342.303955078125 1196.367797851562 -343.5676879882812 C 1209.295288085938 -344.8498840332031 1222.47802734375 -345.4998779296875 1235.55029296875 -345.4998779296875 C 1258.460815429688 -345.4998779296875 1281.414672851562 -343.510498046875 1303.773681640625 -339.5870666503906 C 1325.614990234375 -335.7542419433594 1347.235595703125 -330.0164489746094 1368.034912109375 -322.5326843261719 C 1388.465576171875 -315.1814270019531 1408.39990234375 -306.0401916503906 1427.284301757812 -295.3627014160156 C 1445.95556640625 -284.8055114746094 1463.8505859375 -272.6061401367188 1480.471557617188 -259.1029968261719 C 1497.02490234375 -245.6551971435547 1512.526489257812 -230.7429962158203 1526.5458984375 -214.7801971435547 C 1540.613403320312 -198.7626953125 1553.368408203125 -181.4826965332031 1564.456787109375 -163.4201965332031 C 1575.664306640625 -145.1633148193359 1585.319580078125 -125.8611297607422 1593.153686523438 -106.0495681762695 C 1601.124877929688 -85.89206695556641 1607.326782226562 -64.91237640380859 1611.586791992188 -43.69393920898438 L 1611.847778320312 -42.39487838745117 L 1612.51025390625 -43.54237747192383 C 1631.81591796875 -76.98394012451172 1655.5615234375 -107.908317565918 1683.087158203125 -135.4564361572266 C 1710.590576171875 -162.9820709228516 1741.641235351562 -186.9105072021484 1775.376831054688 -206.5773773193359 C 1809.66552734375 -226.5664367675781 1846.499877929688 -242.0133209228516 1884.8564453125 -252.4883117675781 C 1904.383666992188 -257.8211364746094 1924.494262695312 -261.8992614746094 1944.629638671875 -264.60986328125 C 1965.15087890625 -267.3726806640625 1986.137084960938 -268.7733154296875 2007.005615234375 -268.7733154296875 C 2022.443969726562 -268.7733154296875 2038.013427734375 -268.0054931640625 2053.28125 -266.4908142089844 C 2068.32763671875 -264.9983215332031 2083.447021484375 -262.7445678710938 2098.21923828125 -259.7920532226562 C 2112.80029296875 -256.877685546875 2127.39306640625 -253.2126922607422 2141.5927734375 -248.8986206054688 C 2155.6337890625 -244.6333160400391 2169.623779296875 -239.6317596435547 2183.174560546875 -234.0336303710938 C 2209.9921875 -222.9542541503906 2235.857666015625 -209.2414398193359 2260.052734375 -193.2754974365234 C 2284.017822265625 -177.4614410400391 2306.5537109375 -159.3001861572266 2327.033935546875 -139.2958221435547 C 2347.513916015625 -119.2920684814453 2366.107421875 -97.28050231933594 2382.2978515625 -73.87300109863281 C 2398.64306640625 -50.24143981933594 2412.681884765625 -24.97831535339355 2424.0244140625 1.214497089385986 C 2429.75537109375 14.44981002807617 2434.87548828125 28.11387252807617 2439.242431640625 41.82730865478516 C 2443.65869140625 55.69574737548828 2447.410888671875 69.94856262207031 2450.394287109375 84.18949890136719 C 2453.416748046875 98.6173095703125 2455.724365234375 113.3841857910156 2457.252197265625 128.0798034667969 C 2458.802490234375 142.9916839599609 2459.588623046875 158.1979370117188 2459.588623046875 173.2763671875 C 2459.588623046875 188.3548126220703 2458.802490234375 203.5610656738281 2457.252197265625 218.4729309082031 C 2455.724365234375 233.1685638427734 2453.416748046875 247.9354400634766 2450.394287109375 262.3629455566406 C 2447.410888671875 276.6038818359375 2443.65869140625 290.856689453125 2439.242431640625 304.7254333496094 C 2434.87548828125 318.4388732910156 2429.75537109375 332.1029357910156 2424.0244140625 345.3379211425781 C 2412.681884765625 371.53076171875 2398.64306640625 396.7938842773438 2382.2978515625 420.4257507324219 C 2366.107421875 443.833251953125 2347.513916015625 465.844482421875 2327.033935546875 485.8485717773438 C 2306.5537109375 505.8526306152344 2284.017822265625 524.01416015625 2260.052734375 539.8282470703125 C 2235.857666015625 555.794189453125 2209.9921875 569.5070190429688 2183.174560546875 580.5860595703125 C 2169.623779296875 586.1845092773438 2155.6337890625 591.1857299804688 2141.5927734375 595.4513549804688 C 2127.39306640625 599.7654418945312 2112.80029296875 603.430419921875 2098.21923828125 606.3447875976562 C 2083.447021484375 609.2973022460938 2068.32763671875 611.5510864257812 2053.28125 613.0435791015625 C 2038.013427734375 614.5582275390625 2022.443969726562 615.3260498046875 2007.005615234375 615.3260498046875 C 1992.8193359375 615.3260498046875 1978.504638671875 614.6776123046875 1964.458984375 613.3982543945312 C 1950.601806640625 612.1363525390625 1936.6611328125 610.2291870117188 1923.02490234375 607.7297973632812 C 1909.553955078125 605.2610473632812 1896.046752929688 602.1532592773438 1882.879028320312 598.4932250976562 C 1869.852172851562 594.872314453125 1856.837768554688 590.6217041015625 1844.19775390625 585.860107421875 C 1819.192138671875 576.4401245117188 1794.878662109375 564.742919921875 1771.93310546875 551.0938720703125 C 1749.235229492188 537.5919799804688 1727.60400390625 522.0194702148438 1707.639892578125 504.8082580566406 C 1687.734252929688 487.6473083496094 1669.259643554688 468.6626281738281 1652.729370117188 448.3813781738281 C 1636.11181640625 427.9935607910156 1621.26806640625 406.0604248046875 1608.610229492188 383.1907348632812 C 1602.237182617188 371.6766967773438 1596.3251953125 359.7491760253906 1591.0380859375 347.7398071289062 C 1585.706176757812 335.6285705566406 1580.879638671875 323.137939453125 1576.6923828125 310.6141967773438 C 1572.46240234375 297.9635620117188 1568.780883789062 284.9673156738281 1565.749267578125 271.9863586425781 C 1562.68212890625 258.8538818359375 1560.204345703125 245.4098052978516 1558.384643554688 232.0279388427734 L 1558.205932617188 230.7129364013672 L 1557.472412109375 231.8191833496094 C 1540.467163085938 257.4732360839844 1520.240234375 281.0876159667969 1497.35400390625 302.0060729980469 C 1474.4189453125 322.969482421875 1448.90771484375 341.1382446289062 1421.528686523438 356.0076293945312 C 1393.675537109375 371.1347961425781 1363.955932617188 382.8066711425781 1333.195556640625 390.6991882324219 C 1317.536499023438 394.7170104980469 1301.434936523438 397.7882385253906 1285.337158203125 399.82763671875 C 1268.946533203125 401.9045104980469 1252.195922851562 402.9573059082031 1235.55029296875 402.9573059082031 C 1212.873046875 402.9573059082031 1190.148071289062 401.00732421875 1168.006469726562 397.1616821289062 C 1146.374877929688 393.4041748046875 1124.951171875 387.7779235839844 1104.331176757812 380.4391784667969 C 1084.075927734375 373.2297973632812 1064.297119140625 364.2626342773438 1045.5439453125 353.7866821289062 C 1027.004272460938 343.4295043945312 1009.21337890625 331.4570007324219 992.6655883789062 318.2007446289062 L 991.7021484375 317.4288635253906 L 991.8571166992188 318.6538696289062 C 994.4508666992188 339.1470031738281 995.765869140625 360.0726318359375 995.765869140625 380.8494873046875 C 995.765869140625 397.9610595703125 994.8736572265625 415.2176208496094 993.114013671875 432.1398010253906 C 991.3799438476562 448.8169860839844 988.761474609375 465.5747985839844 985.3311767578125 481.9479370117188 C 981.9452514648438 498.10888671875 977.6871337890625 514.2835693359375 972.6752319335938 530.02197265625 C 967.7192993164062 545.58447265625 961.9083862304688 561.091064453125 955.4039916992188 576.1104125976562 C 948.9595947265625 590.9913940429688 941.6830444335938 605.7448120117188 933.77587890625 619.9613647460938 C 925.9249267578125 634.07666015625 917.269287109375 647.9926147460938 908.0490112304688 661.3223266601562 C 898.8733520507812 674.587646484375 888.9252319335938 687.5810546875 878.481201171875 699.9413452148438 C 868.062744140625 712.2713623046875 856.9093017578125 724.25732421875 845.3308715820312 735.5660400390625 C 833.7521362304688 746.8748168945312 821.480224609375 757.7682495117188 808.8558959960938 767.9442138671875 C 796.2002563476562 778.1451416015625 782.8967895507812 787.8613891601562 769.3146362304688 796.8235473632812 C 755.66650390625 805.8291625976562 741.4180908203125 814.2835693359375 726.9652709960938 821.95166015625 C 712.4089965820312 829.6748046875 697.302734375 836.7822875976562 682.066162109375 843.07666015625 C 666.6874389648438 849.4298095703125 650.8102416992188 855.1054077148438 634.8755493164062 859.9463500976562 C 618.7605590820312 864.8416748046875 602.198974609375 869.0010375976562 585.6511840820312 872.3082275390625 C 568.886474609375 875.6588745117188 551.7277221679688 878.2166748046875 534.6514892578125 879.9104614257812 C 517.323974609375 881.6288452148438 499.6546325683594 882.5004272460938 482.1336975097656 882.5004272460938 Z" stroke="none"/>
      <path d="M 482.1336975097656 882.0004272460938 C 499.6383666992188 882.0004272460938 517.2911987304688 881.1298217773438 534.6021118164062 879.41259765625 C 551.662109375 877.7207641601562 568.8046264648438 875.1654052734375 585.5533447265625 871.8179321289062 C 602.0852661132812 868.5138549804688 618.6305541992188 864.3585815429688 634.730224609375 859.4679565429688 C 650.6495971679688 854.6317138671875 666.511474609375 848.961669921875 681.875244140625 842.614501953125 C 697.0971069335938 836.3263549804688 712.1890258789062 829.2257690429688 726.7308959960938 821.5101318359375 C 741.1696166992188 813.8491821289062 755.404296875 805.4032592773438 769.039306640625 796.4060668945312 C 782.6083984375 787.45263671875 795.8989868164062 777.7457275390625 808.5421142578125 767.5548095703125 C 821.1539916992188 757.3888549804688 833.4140014648438 746.5060424804688 844.9815063476562 735.208251953125 C 856.5487060546875 723.9107666015625 867.6908569335938 711.9367065429688 878.0993041992188 699.6185302734375 C 888.5330810546875 687.2704467773438 898.47119140625 674.2901000976562 907.6377563476562 661.0379638671875 C 916.8486938476562 647.7213745117188 925.495849609375 633.8195190429688 933.3389892578125 619.71826171875 C 941.238037109375 605.5160522460938 948.5074462890625 590.7776489257812 954.9452514648438 575.9116821289062 C 961.4427490234375 560.9075927734375 967.2477416992188 545.4169921875 972.1986694335938 529.8701171875 C 977.20556640625 514.14794921875 981.4592895507812 497.9898071289062 984.841796875 481.8451232910156 C 988.2686767578125 465.4891967773438 990.8846435546875 448.7482604980469 992.6168212890625 432.0879211425781 C 994.3746337890625 415.1829223632812 995.265869140625 397.9438781738281 995.265869140625 380.8494873046875 C 995.265869140625 360.0935668945312 993.9521484375 339.1891784667969 991.3609008789062 318.7166748046875 L 991.0509033203125 316.2666931152344 L 992.9783935546875 317.8107604980469 C 1009.504638671875 331.0494995117188 1027.272094726562 343.0066833496094 1045.787719726562 353.3501281738281 C 1064.516479492188 363.8126220703125 1084.269897460938 372.7682495117188 1104.498657226562 379.9679260253906 C 1125.092407226562 387.297607421875 1146.488403320312 392.9163818359375 1168.092163085938 396.6688842773438 C 1190.20556640625 400.5097961425781 1212.90185546875 402.4573059082031 1235.55029296875 402.4573059082031 C 1252.174926757812 402.4573059082031 1268.904296875 401.40576171875 1285.274291992188 399.3316955566406 C 1301.351196289062 397.2947998046875 1317.432495117188 394.227294921875 1333.071166992188 390.2148132324219 C 1363.791870117188 382.3326110839844 1393.473022460938 370.6760559082031 1421.290283203125 355.5682373046875 C 1448.633422851562 340.7179260253906 1474.111450195312 322.5729370117188 1497.016845703125 301.6369934082031 C 1519.872802734375 280.7460632324219 1540.073120117188 257.1629333496094 1557.055908203125 231.5429382324219 L 1558.5224609375 229.3304290771484 L 1558.880249023438 231.9607543945312 C 1560.69775390625 245.3269958496094 1563.172729492188 258.755126953125 1566.236206054688 271.8726196289062 C 1569.264038085938 284.8385620117188 1572.941528320312 297.81982421875 1577.16650390625 310.4557495117188 C 1581.348999023438 322.9648132324219 1586.169921875 335.4410705566406 1591.49560546875 347.5382385253906 C 1596.77685546875 359.5341796875 1602.68212890625 371.4479370117188 1609.047729492188 382.9485473632812 C 1621.691162109375 405.7922973632812 1636.518432617188 427.7007446289062 1653.116821289062 448.0654296875 C 1669.628662109375 468.3241882324219 1688.082763671875 487.2876281738281 1707.966552734375 504.4295043945312 C 1727.908325195312 521.6217041015625 1749.515869140625 537.1773071289062 1772.188720703125 550.6641845703125 C 1795.109008789062 564.2982177734375 1819.395874023438 575.9826049804688 1844.3740234375 585.392333984375 C 1857.000244140625 590.1485595703125 1870.000244140625 594.3944702148438 1883.013061523438 598.0113525390625 C 1896.16650390625 601.6676025390625 1909.65869140625 604.77197265625 1923.114990234375 607.2382202148438 C 1936.73681640625 609.7348022460938 1950.662109375 611.6398315429688 1964.504272460938 612.9004516601562 C 1978.534912109375 614.17822265625 1992.834594726562 614.8260498046875 2007.005615234375 614.8260498046875 C 2022.427734375 614.8260498046875 2037.980224609375 614.0588989257812 2053.23193359375 612.5460815429688 C 2068.26220703125 611.0551147460938 2083.365234375 608.8038940429688 2098.12109375 605.8544921875 C 2112.686279296875 602.9432373046875 2127.263427734375 599.2822875976562 2141.447509765625 594.9729614257812 C 2155.47265625 590.7119750976562 2169.44775390625 585.7163696289062 2182.983642578125 580.1242065429688 C 2209.771728515625 569.0570068359375 2235.60888671875 555.3591918945312 2259.77734375 539.4107666015625 C 2283.7158203125 523.6141967773438 2306.226806640625 505.4729309082031 2326.6845703125 485.4907531738281 C 2347.141845703125 465.5091857910156 2365.71435546875 443.5223083496094 2381.886474609375 420.141357421875 C 2398.213134765625 396.536376953125 2412.23583984375 371.3023071289062 2423.565185546875 345.1391906738281 C 2429.2900390625 331.9194946289062 2434.404296875 318.2713623046875 2438.765869140625 304.5735473632812 C 2443.17724609375 290.7210693359375 2446.925048828125 276.4848022460938 2449.905029296875 262.2604370117188 C 2452.924072265625 247.8495025634766 2455.228759765625 233.0998077392578 2456.7548828125 218.4210662841797 C 2458.303466796875 203.5263671875 2459.088623046875 188.3376159667969 2459.088623046875 173.2763671875 C 2459.088623046875 158.2151184082031 2458.303466796875 143.0263671875 2456.7548828125 128.1316833496094 C 2455.228759765625 113.4529342651367 2452.924072265625 98.70293426513672 2449.905029296875 84.29199981689453 C 2446.925048828125 70.06761932373047 2443.17724609375 55.83137130737305 2438.765869140625 41.9788703918457 C 2434.404296875 28.2813720703125 2429.2900390625 14.6329345703125 2423.565185546875 1.413247108459473 C 2412.23583984375 -24.74956512451172 2398.213134765625 -49.98394012451172 2381.886474609375 -73.58863067626953 C 2365.71435546875 -96.96987915039062 2347.141845703125 -118.9567565917969 2326.6845703125 -138.9383087158203 C 2306.226806640625 -158.9201965332031 2283.71630859375 -177.0614471435547 2259.77734375 -192.8583221435547 C 2235.60888671875 -208.8064422607422 2209.771728515625 -222.5042572021484 2182.983642578125 -233.5714416503906 C 2169.44775390625 -239.1636352539062 2155.47265625 -244.1595611572266 2141.447509765625 -248.4205017089844 C 2127.263427734375 -252.7295684814453 2112.686279296875 -256.3905029296875 2098.12109375 -259.3017578125 C 2083.365234375 -262.2511291503906 2068.26220703125 -264.5023803710938 2053.23193359375 -265.9933166503906 C 2037.980224609375 -267.5061340332031 2022.427734375 -268.2733154296875 2007.005615234375 -268.2733154296875 C 1986.159301757812 -268.2733154296875 1965.195190429688 -266.8739318847656 1944.696166992188 -264.1145629882812 C 1924.582763671875 -261.40673828125 1904.494018554688 -257.3330078125 1884.988037109375 -252.0058135986328 C 1846.673706054688 -241.5423736572266 1809.879638671875 -226.1126861572266 1775.628662109375 -206.1451873779297 C 1741.930297851562 -186.5001831054688 1710.913696289062 -162.5980072021484 1683.44091796875 -135.1029968261719 C 1655.945922851562 -107.5855026245117 1632.227172851562 -76.69612884521484 1612.943115234375 -43.29237747192383 L 1611.618408203125 -40.99737930297852 L 1611.096801757812 -43.59550476074219 C 1606.842407226562 -64.78488159179688 1600.649047851562 -85.73581695556641 1592.688720703125 -105.8658142089844 C 1584.865234375 -125.6501922607422 1575.223022460938 -144.9264373779297 1564.030883789062 -163.1586303710938 C 1552.957153320312 -181.1970672607422 1540.218994140625 -198.4542541503906 1526.170288085938 -214.4501953125 C 1512.169311523438 -230.3920593261719 1496.687744140625 -245.2848815917969 1480.156127929688 -258.7148742675781 C 1463.556762695312 -272.2005004882812 1445.685302734375 -284.3839416503906 1427.0380859375 -294.9273681640625 C 1408.178344726562 -305.5911254882812 1388.269897460938 -314.7204895019531 1367.865600585938 -322.0620727539062 C 1347.093017578125 -329.5364379882812 1325.500244140625 -335.2667541503906 1303.687377929688 -339.0945739746094 C 1281.356811523438 -343.0130004882812 1258.43212890625 -344.9998779296875 1235.55029296875 -344.9998779296875 C 1222.49462890625 -344.9998779296875 1209.328369140625 -344.3504943847656 1196.417114257812 -343.0701904296875 C 1183.693115234375 -341.8080139160156 1170.90771484375 -339.9023742675781 1158.415893554688 -337.4061279296875 C 1133.843383789062 -332.4955139160156 1109.672729492188 -325.1679992675781 1086.576171875 -315.627685546875 C 1063.898681640625 -306.2601928710938 1042.026489257812 -294.6661376953125 1021.566833496094 -281.1673889160156 C 1001.301818847656 -267.7970581054688 982.2455444335938 -252.4420623779297 964.9271240234375 -235.5289459228516 C 947.6093139648438 -218.6164398193359 931.8871459960938 -200.0067596435547 918.1968383789062 -180.2167510986328 C 904.3758544921875 -160.2376861572266 892.5052490234375 -138.8792572021484 882.9146118164062 -116.7351913452148 C 873.1467895507812 -94.18206787109375 865.645263671875 -70.58081817626953 860.6177368164062 -46.58706665039062 C 858.0618286132812 -34.38987731933594 856.1109008789062 -21.90581512451172 854.8189697265625 -9.481753349304199 C 853.508056640625 3.124809503555298 852.8433837890625 15.98074722290039 852.8433837890625 28.72855949401855 C 852.8433837890625 29.77262115478516 852.8480834960938 30.8410587310791 852.8571166992188 31.90449714660645 L 852.8780517578125 34.36637115478516 L 851.1461791992188 32.61637115478516 C 839.5255737304688 20.87262153625488 827.1771240234375 9.553872108459473 814.4439697265625 -1.025502920150757 C 801.6840209960938 -11.62769031524658 788.2443237304688 -21.73112869262695 774.4983520507812 -31.05519104003906 C 760.6883544921875 -40.42269134521484 746.250244140625 -49.21987915039062 731.5842895507812 -57.2030029296875 C 716.8152465820312 -65.24269104003906 701.4708862304688 -72.64363098144531 685.9780883789062 -79.20050048828125 C 670.340576171875 -85.81831359863281 654.1830444335938 -91.73237609863281 637.9546508789062 -96.77768707275391 C 621.5405883789062 -101.8808135986328 604.6627197265625 -106.2173767089844 587.7896118164062 -109.666130065918 C 570.6915283203125 -113.1611251831055 553.1852416992188 -115.8295669555664 535.7574462890625 -117.5967559814453 C 518.068359375 -119.3905029296875 500.0268249511719 -120.3001937866211 482.1336975097656 -120.3001937866211 C 464.6289978027344 -120.3001937866211 446.9761962890625 -119.4295654296875 429.6652526855469 -117.7123794555664 C 412.6049499511719 -116.0205001831055 395.4624328613281 -113.4651870727539 378.7136840820312 -110.1176910400391 C 362.1818237304688 -106.8136291503906 345.6361999511719 -102.658317565918 329.5364990234375 -97.76769256591797 C 313.6171264648438 -92.93175506591797 297.7552490234375 -87.26144409179688 282.3911743164062 -80.91456604003906 C 267.1693115234375 -74.62612915039062 252.0777435302734 -67.52550506591797 237.5355682373047 -59.80987930297852 C 223.0968170166016 -52.14925384521484 208.8621215820312 -43.7030029296875 195.2271270751953 -34.70612716674805 C 181.6580657958984 -25.7526912689209 168.367431640625 -16.04581451416016 155.7243041992188 -5.854877948760986 C 143.1121215820312 4.311059474945068 130.8521270751953 15.19387245178223 119.2846221923828 26.49168395996094 C 107.7174377441406 37.7891845703125 96.57493591308594 49.76324844360352 86.16680908203125 62.08137130737305 C 75.73306274414062 74.42918395996094 65.79493713378906 87.40981292724609 56.6280632019043 100.661994934082 C 47.4171257019043 113.9782485961914 38.76993560791016 127.8801193237305 30.92681121826172 141.9813690185547 C 23.02774810791016 156.1835632324219 15.75837421417236 170.9219970703125 9.320561408996582 185.7879333496094 C 2.823061466217041 200.7919921875 -2.981938362121582 216.2826232910156 -7.932876110076904 231.8291778564453 C -12.93975067138672 247.5516815185547 -17.19350051879883 263.7095031738281 -20.57600021362305 279.8541870117188 C -24.00287628173828 296.2101135253906 -26.61881256103516 312.9510498046875 -28.35100173950195 329.6110534667969 C -30.10881423950195 346.516357421875 -31.00006294250488 363.7554321289062 -31.00006294250488 380.8494873046875 C -31.00006294250488 397.9438781738281 -30.10881423950195 415.1829223632812 -28.35100173950195 432.0879211425781 C -26.61881256103516 448.7482604980469 -24.00287628173828 465.4891967773438 -20.57600021362305 481.8451232910156 C -17.19350051879883 497.9898071289062 -12.93975067138672 514.14794921875 -7.932876110076904 529.8701171875 C -2.981938362121582 545.4169921875 2.823061466217041 560.9075927734375 9.320561408996582 575.9116821289062 C 15.75837421417236 590.7776489257812 23.02774810791016 605.5160522460938 30.92681121826172 619.71826171875 C 38.76993560791016 633.8195190429688 47.4171257019043 647.7213745117188 56.6280632019043 661.0379638671875 C 65.79493713378906 674.2901000976562 75.73306274414062 687.2704467773438 86.16680908203125 699.6185302734375 C 96.57493591308594 711.9367065429688 107.7174377441406 723.9107666015625 119.2846221923828 735.208251953125 C 130.8521270751953 746.5060424804688 143.1121215820312 757.3888549804688 155.7243041992188 767.5548095703125 C 168.367431640625 777.7457275390625 181.6580657958984 787.45263671875 195.2271270751953 796.4060668945312 C 208.8621215820312 805.4032592773438 223.0968170166016 813.8491821289062 237.5355682373047 821.5101318359375 C 252.0777435302734 829.2257690429688 267.1693115234375 836.3263549804688 282.3911743164062 842.614501953125 C 297.7552490234375 848.961669921875 313.6171264648438 854.6317138671875 329.5364990234375 859.4679565429688 C 345.6361999511719 864.3585815429688 362.1818237304688 868.5138549804688 378.7136840820312 871.8179321289062 C 395.4624328613281 875.1654052734375 412.6049499511719 877.7207641601562 429.6652526855469 879.41259765625 C 446.9761962890625 881.1298217773438 464.6289978027344 882.0004272460938 482.1336975097656 882.0004272460938 M 482.1336975097656 883.0004272460938 C 198.1849365234375 883.0004272460938 -32.00006484985352 658.1795043945312 -32.00006484985352 380.8494873046875 C -32.00006484985352 103.5204315185547 198.1849365234375 -121.3001937866211 482.1336975097656 -121.3001937866211 C 627.2789916992188 -121.3001937866211 758.3715209960938 -62.56081390380859 851.8571166992188 31.91293525695801 C 851.8480834960938 30.85387229919434 851.8433837890625 29.78981018066406 851.8433837890625 28.72855949401855 C 851.8433837890625 -178.2279968261719 1023.634948730469 -345.9998779296875 1235.55029296875 -345.9998779296875 C 1422.062744140625 -345.9998779296875 1577.493041992188 -216.0458221435547 1612.0771484375 -43.79237747192383 C 1689.78369140625 -178.3961334228516 1837.522094726562 -269.2733154296875 2007.005615234375 -269.2733154296875 C 2257.2353515625 -269.2733154296875 2460.088623046875 -71.13737487792969 2460.088623046875 173.2763671875 C 2460.088623046875 417.6898193359375 2257.2353515625 615.8260498046875 2007.005615234375 615.8260498046875 C 1777.193969726562 615.8260498046875 1587.343994140625 448.6988830566406 1557.889282226562 232.0954284667969 C 1489.532470703125 335.2173156738281 1370.700927734375 403.4573059082031 1235.55029296875 403.4573059082031 C 1143.251220703125 403.4573059082031 1058.55029296875 371.6201171875 992.3530883789062 318.591064453125 C 994.9340209960938 338.9832458496094 996.265869140625 359.7754211425781 996.265869140625 380.8494873046875 C 996.265869140625 658.1795043945312 766.0811767578125 883.0004272460938 482.1336975097656 883.0004272460938 Z" stroke="none" fill="#707070"/>
    </g>
    <g id="Ellipse_17" data-name="Ellipse 17" transform="translate(325 114)" fill="#ecbb45" stroke="#ecbb45" stroke-width="1" opacity="0.053">
      <circle cx="17" cy="17" r="17" stroke="none"/>
      <circle cx="17" cy="17" r="16.5" fill="none"/>
    </g>
    <g id="Ellipse_18" data-name="Ellipse 18" transform="translate(926 838)" fill="#ecbb45" stroke="#ecbb45" stroke-width="1" opacity="0.053">
      <circle cx="17" cy="17" r="17" stroke="none"/>
      <circle cx="17" cy="17" r="16.5" fill="none"/>
    </g>
    <g id="Ellipse_20" data-name="Ellipse 20" transform="translate(1839 552)" fill="#ecbb45" stroke="#ecbb45" stroke-width="1" opacity="0.053">
      <circle cx="17" cy="17" r="17" stroke="none"/>
      <circle cx="17" cy="17" r="16.5" fill="none"/>
    </g>
    <g id="Ellipse_22" data-name="Ellipse 22" transform="translate(1591 792)" fill="#ecbb45" stroke="#ecbb45" stroke-width="1" opacity="0.053">
      <circle cx="98.5" cy="98.5" r="98.5" stroke="none"/>
      <circle cx="98.5" cy="98.5" r="98" fill="none"/>
    </g>
    <g id="Ellipse_23" data-name="Ellipse 23" transform="translate(61 183)" fill="#ecbb45" stroke="#ecbb45" stroke-width="1" opacity="0.053">
      <circle cx="98.5" cy="98.5" r="98.5" stroke="none"/>
      <circle cx="98.5" cy="98.5" r="98" fill="none"/>
    </g>
    <g id="Ellipse_25" data-name="Ellipse 25" transform="translate(1106 890)" fill="#a15421" stroke="#a15421" stroke-width="1" opacity="0.053">
      <circle cx="62" cy="62" r="62" stroke="none"/>
      <circle cx="62" cy="62" r="61.5" fill="none"/>
    </g>
    <g id="Ellipse_26" data-name="Ellipse 26" transform="translate(738 677)" fill="#a15421" stroke="#a15421" stroke-width="1" opacity="0.053">
      <circle cx="45.5" cy="45.5" r="45.5" stroke="none"/>
      <circle cx="45.5" cy="45.5" r="45" fill="none"/>
    </g>
    <g id="Ellipse_27" data-name="Ellipse 27" transform="translate(1733 286)" fill="#a15421" stroke="#a15421" stroke-width="1" opacity="0.053">
      <circle cx="27.5" cy="27.5" r="27.5" stroke="none"/>
      <circle cx="27.5" cy="27.5" r="27" fill="none"/>
    </g>
    <g id="Ellipse_28" data-name="Ellipse 28" transform="translate(960 214)" fill="#ecbb45" stroke="#ecbb45" stroke-width="1" opacity="0.053">
      <circle cx="37" cy="37" r="37" stroke="none"/>
      <circle cx="37" cy="37" r="36.5" fill="none"/>
    </g>
    <g id="Ellipse_29" data-name="Ellipse 29" transform="translate(1252 24)" fill="#a15421" stroke="#a15421" stroke-width="1" opacity="0.053">
      <circle cx="62" cy="62" r="62" stroke="none"/>
      <circle cx="62" cy="62" r="61.5" fill="none"/>
    </g>
    <g id="Ellipse_30" data-name="Ellipse 30" transform="translate(70 952)" fill="#a15421" stroke="#a15421" stroke-width="1" opacity="0.053">
      <circle cx="27.5" cy="27.5" r="27.5" stroke="none"/>
      <circle cx="27.5" cy="27.5" r="27" fill="none"/>
    </g>
    <g id="Ellipse_31" data-name="Ellipse 31" transform="translate(1652 211)" fill="#211c1c" stroke="#211c1c" stroke-width="1">
      <circle cx="18" cy="18" r="18" stroke="none"/>
      <circle cx="18" cy="18" r="17.5" fill="none"/>
    </g>
  </g>
</svg>
